 <svg  version="1.0" xmlns="http://www.w3.org/2000/svg"  width="300.000000pt" height="300.000000pt" viewBox="0 0 300.000000 300.000000"  preserveAspectRatio="xMidYMid meet">  <g transform="translate(0.000000,300.000000) scale(0.100000,-0.100000)" fill="#767474" stroke="none"> <path d="M730 2448 c0 -10 167 -366 404 -863 40 -82 164 -344 276 -582 118 -250 208 -429 213 -424 5 5 -11 51 -38 108 -26 54 -122 253 -213 443 -90 190 -193 404 -227 475 -136 284 -290 605 -337 704 -45 95 -78 154 -78 139z"/> <path d="M956 2370 c7 -25 137 -307 439 -950 92 -195 199 -424 238 -507 66 -141 87 -175 87 -139 0 7 -28 72 -61 142 -34 71 -78 165 -99 209 -322 684 -614 1287 -604 1245z"/> <path d="M749 2308 c68 -149 93 -204 181 -388 51 -107 107 -226 125 -265 344 -728 534 -1128 538 -1131 2 -3 7 1 9 8 3 7 -24 74 -60 148 -36 74 -213 446 -395 825 -348 728 -414 865 -422 865 -2 0 9 -28 24 -62z"/> <path d="M660 2208 c0 -9 116 -259 273 -588 379 -797 541 -1139 564 -1189 15 -35 28 -50 34 -44 6 6 -24 79 -84 204 -52 107 -115 237 -139 289 -25 52 -128 266 -228 475 -100 209 -206 430 -235 490 -67 140 -175 358 -181 364 -2 2 -4 2 -4 -1z"/> <path d="M1069 2018 c5 -13 73 -158 151 -323 78 -165 157 -331 175 -370 18 -38 64 -135 102 -215 38 -80 95 -202 128 -272 34 -71 64 -123 69 -118 4 4 -5 36 -22 72 -17 34 -69 144 -117 243 -48 99 -129 268 -180 375 -184 386 -304 630 -309 630 -3 0 -2 -10 3 -22z"/> <path d="M986 2010 c6 -24 77 -178 199 -435 31 -66 92 -194 135 -285 43 -91 107 -226 142 -300 35 -74 88 -188 118 -252 51 -109 70 -138 70 -105 0 12 -106 236 -511 1077 -113 236 -160 327 -153 300z"/> <path d="M920 1859 c0 -11 89 -206 215 -469 64 -135 131 -274 147 -310 17 -36 79 -166 138 -290 58 -124 115 -244 125 -267 19 -43 35 -56 35 -29 0 8 -20 54 -44 102 -24 49 -118 244 -209 434 -346 722 -406 844 -407 829z"/> <path d="M1752 1739 c-28 -57 -91 -189 -141 -293 -50 -104 -91 -193 -91 -197 0 -29 22 5 69 109 30 64 92 197 139 295 46 98 81 181 79 184 -3 3 -28 -42 -55 -98z"/> <path d="M1769 1583 c-68 -141 -143 -295 -165 -342 -23 -47 -39 -90 -36 -95 3 -6 23 26 43 70 21 43 75 156 120 249 111 233 171 367 166 371 -2 2 -60 -112 -128 -253z"/> <path d="M1740 1618 c-168 -346 -202 -419 -196 -426 3 -3 8 -3 10 -1 4 5 223 469 268 568 15 35 27 65 25 67 -2 2 -50 -92 -107 -208z"/> <path d="M1920 1811 c0 -4 -43 -98 -96 -207 -196 -406 -235 -488 -232 -503 2 -8 26 35 55 95 314 661 297 624 283 624 -6 0 -10 -4 -10 -9z"/> <path d="M2053 1788 c-29 -56 -403 -820 -403 -824 0 -2 4 -4 10 -4 5 0 27 37 49 83 46 97 133 279 226 472 37 77 83 174 102 215 19 41 37 78 40 83 2 4 2 7 -1 7 -3 0 -13 -15 -23 -32z"/> <path d="M1896 1659 c-40 -85 -121 -253 -180 -373 -58 -120 -106 -223 -106 -228 0 -19 19 -6 28 20 6 15 85 184 176 376 92 192 164 351 162 354 -3 3 -39 -64 -80 -149z"/> <path d="M1946 1478 c-90 -183 -187 -380 -215 -437 -28 -58 -50 -112 -48 -120 3 -15 40 56 192 374 29 61 85 178 125 260 90 186 120 255 114 255 -3 0 -79 -150 -168 -332z"/> <path d="M2034 1474 c-263 -536 -314 -642 -314 -655 0 -29 25 17 131 237 61 126 140 290 176 364 142 294 184 383 179 388 -3 2 -80 -148 -172 -334z"/> <path d="M1957 1688 c-242 -495 -327 -671 -327 -679 0 -23 17 -5 36 39 12 26 97 204 189 395 92 192 165 351 162 353 -3 3 -30 -46 -60 -108z"/> <path d="M1973 1443 c-228 -464 -274 -564 -269 -577 2 -6 41 66 86 159 371 767 375 775 364 775 -2 0 -84 -161 -181 -357z"/> <path d="M1161 1735 c33 -77 491 -1051 499 -1058 31 -32 1 42 -110 273 -320 667 -382 796 -392 805 -5 6 -4 -3 3 -20z"/> <path d="M960 1678 c0 -7 234 -508 372 -798 35 -74 97 -206 138 -292 65 -140 90 -181 90 -148 0 12 -567 1196 -587 1225 -7 11 -13 16 -13 13z"/> <path d="M918 1564 c5 -11 20 -41 32 -69 12 -27 63 -135 113 -240 137 -289 397 -845 417 -890 13 -30 19 -36 24 -24 7 17 -6 48 -132 309 -38 80 -126 262 -194 405 -215 447 -249 514 -259 521 -8 4 -8 1 -1 -12z"/> </g> </svg> 